#!OML:ASF F:\VICON\USERDATA\INSTALL\Justin_Nancy\Justin_Nancy.ASF
:FULLY-SPECIFIED
:DEGREES
33
root -9.13352 17.7446 -30.2415 -1.51095 -0.203748 -0.89185
lowerback 6.54178 -1.69095 -2.23494
upperback -0.61193 -2.25318 4.40021
thorax -4.04498 -1.02411 6.07971
lowerneck -8.5001 -1.22634 -12.1482
upperneck 19.1626 -0.660274 4.77112
head 7.34952 -0.765137 3.5299
rclavicle -4.47887e-014 7.4743e-014
rhumerus -34.4089 -7.98049 -76.419
rradius 28.2463
rwrist 9.05284
rhand -15.6603 6.44898
rfingers 7.12502
rthumb 10.5278 -23.2674
lclavicle -4.47887e-014 7.4743e-014
lhumerus -33.5643 15.2286 84.9867
lradius 25.8042
lwrist -12.2484
lhand -18.1525 22.4141
lfingers 7.12502
lthumb 8.12313 52.238
rfemur -7.88719 1.22495 27.1421
rtibia 18.3953
rfoot -5.57375 -5.89646
rtoes 8.89695
lfemur -14.3228 0.624192 -17.2235
ltibia 64.02
lfoot 6.7687 -7.38099
ltoes -7.30119
34
root -9.14362 17.7557 -30.0927 -1.41338 -0.563679 -0.981006
lowerback 6.4264 -0.976663 -1.51065
upperback -0.187951 -1.27448 3.77584
thorax -3.68327 -0.571617 4.89814
lowerneck -10.0744 -1.8933 -11.2284
upperneck 19.514 -1.59634 5.05702
head 7.81928 -1.11213 3.3944
rclavicle 1.64246e-014 -2.54444e-014
rhumerus -33.6687 -10.0348 -76.7434
rradius 28.4234
rwrist 9.08567
rhand -16.0284 6.44259
rfingers 7.12502
rthumb 10.1727 -23.2915
lclavicle 1.64246e-014 -2.54444e-014
lhumerus -32.3733 13.191 85.253
lradius 25.536
lwrist -11.4095
lhand -17.6981 22.2056
lfingers 7.12502
lthumb 8.56166 52.012
rfemur -7.3081 1.50269 27.318
rtibia 18.2413
rfoot -5.77469 -5.8789
rtoes 8.18714
lfemur -15.4826 0.827552 -17.0649
ltibia 64.2303
lfoot 5.51409 -6.42648
ltoes -6.5397
35
root -9.15101 17.7488 -29.9487 -1.38339 -0.628001 -1.07553
lowerback 6.75147 -2.01537 -3.1036
upperback -1.33212 -2.71216 5.20834
thorax -4.78823 -1.18415 7.53089
lowerneck -6.73322 -0.434787 -13.049
upperneck 19.1039 0.380063 4.4269
head 6.93261 -0.372916 3.63946
rclavicle -7.14382e-015 -1.59028e-015
rhumerus -34.6411 -3.91971 -76.8064
rradius 28.8396
rwrist 7.51078
rhand -15.3344 7.36675
rfingers 7.12502
rthumb 10.8422 -22.3334
lclavicle -7.14382e-015 -1.59028e-015
lhumerus -36.0278 17.4391 84.8278
lradius 26.257
lwrist -11.2126
lhand -18.0088 22.12
lfingers 7.12502
lthumb 8.26179 51.9385
rfemur -6.71991 1.61933 27.4821
rtibia 18.2254
rfoot -6.21907 -6.0576
rtoes 5.19517
lfemur -16.6482 0.843631 -16.8988
ltibia 64.3755
lfoot 4.53082 -5.77918
ltoes -6.06663
36
root -9.15285 17.7323 -29.8088 -1.42154 -0.541177 -1.02969
lowerback 6.69811 -1.60558 -2.45694
upperback -0.947446 -2.14017 4.63782
thorax -4.48181 -0.941325 6.47014
lowerneck -7.86008 -1.31436 -12.6728
upperneck 19.8797 -0.742711 4.53018
head 7.48744 -0.892188 3.53982
rclavicle 1.73409e-014 -1.27222e-014
rhumerus -33.8712 -5.43781 -77.0739
rradius 29.0285
rwrist 7.3962
rhand -14.6608 8.64582
rfingers 7.12502
rthumb 11.4919 -21.0192
lclavicle 1.73409e-014 -1.27222e-014
lhumerus -35.1361 15.6503 85.2698
lradius 26.3733
lwrist -10.7651
lhand -18.1654 22.666
lfingers 7.12502
lthumb 8.11071 52.4904
rfemur -6.17707 1.42509 27.4489
rtibia 18.361
rfoot -6.92121 -6.072
rtoes 5.1286
lfemur -17.6686 0.716648 -16.9503
ltibia 64.3865
lfoot 3.23218 -5.20085
ltoes -6.62405
37
root -9.15492 17.7229 -29.6736 -1.46341 -0.762154 -1.11962
lowerback 6.80477 -0.716484 -1.26464
upperback -0.41343 -0.905442 3.63771
thorax -4.1718 -0.381908 4.59263
lowerneck -9.71673 -2.13446 -11.1225
upperneck 19.89 -1.97043 4.92467
head 7.91134 -1.3072 3.30172
rclavicle 7.09413e-015 2.46493e-014
rhumerus -33.012 -8.93502 -77.2938
rradius 29.1206
rwrist 8.29961
rhand -15.027 7.47143
rfingers 7.12502
rthumb 11.1388 -22.2129
lclavicle 7.09413e-015 2.46493e-014
lhumerus -33.6315 12.4629 85.6205
lradius 26.2949
lwrist -10.1473
lhand -18.0954 22.6693
lfingers 7.12502
lthumb 8.17829 52.491
rfemur -5.74033 1.36367 27.5707
rtibia 18.6344
rfoot -7.60867 -6.10446
rtoes 5.75703
lfemur -18.6541 0.864656 -16.846
ltibia 64.2359
lfoot 1.87909 -4.75196
ltoes -7.87973
38
root -9.15772 17.7104 -29.5364 -1.51865 -1.281 -1.29549
lowerback 7.43077 -1.86857 -2.94807
upperback -1.66699 -2.49153 5.30683
thorax -5.56388 -1.04169 7.58164
lowerneck -6.28541 -0.354364 -13.1863
upperneck 19.3603 0.501282 4.11685
head 6.93198 -0.363165 3.57041
rclavicle 1.61264e-014 2.38542e-014
rhumerus -34.0765 -2.04307 -77.3688
rradius 29.5614
rwrist 7.19219
rhand -14.5066 7.76493
rfingers 7.12502
rthumb 11.6406 -21.8917
lclavicle 1.61264e-014 2.38542e-014
lhumerus -37.8304 17.8777 84.8189
lradius 27.0833
lwrist -10.2834
lhand -17.9455 22.229
lfingers 7.12502
lthumb 8.3229 52.045
rfemur -5.17408 1.4497 27.7966
rtibia 18.9466
rfoot -8.38903 -6.02968
rtoes 5.65265
lfemur -19.5109 1.17051 -16.6459
ltibia 63.9186
lfoot 0.564079 -3.99515
ltoes -7.36268
39
root -9.15622 17.696 -29.3951 -1.46822 -1.78476 -1.47073
lowerback 7.08623 -0.923004 -1.6322
upperback -0.895645 -1.1663 4.39621
thorax -4.79137 -0.473945 5.65366
lowerneck -8.41902 -1.32464 -11.9974
upperneck 19.6297 -0.793165 4.57309
head 7.50056 -0.84931 3.43499
rclavicle 1.62545e-014 -7.15625e-015
rhumerus -32.9641 -5.01827 -77.7251
rradius 29.9756
rwrist 6.8486
rhand -13.8475 8.89167
rfingers 7.12502
rthumb 12.2761 -20.728
lclavicle 1.62545e-014 -7.15625e-015
lhumerus -35.6514 14.9063 85.4775
lradius 26.572
lwrist -9.8409
lhand -18.0582 22.4054
lfingers 7.12502
lthumb 8.21412 52.2257
rfemur -4.75338 1.69812 28.0246
rtibia 19.2111
rfoot -9.20966 -5.68604
rtoes 5.70828
lfemur -20.4091 1.49178 -16.4662
ltibia 63.4572
lfoot -0.402238 -3.04163
ltoes -5.21756
40
root -9.15448 17.6806 -29.252 -1.51577 -2.02409 -1.55832
lowerback 7.12034 -0.905541 -1.58192
upperback -1.02442 -1.13228 4.44957
thorax -4.94953 -0.452015 5.68293
lowerneck -7.58173 -1.08389 -12.0915
upperneck 19.0083 -0.572463 4.66314
head 7.12757 -0.731768 3.48714
rclavicle -9.56651e-016 1.35174e-014
rhumerus -33.0236 -4.3112 -77.8945
rradius 30.5024
rwrist 6.88321
rhand -14.7131 6.61709
rfingers 7.12502
rthumb 11.4414 -23.0507
lclavicle -9.56651e-016 1.35174e-014
lhumerus -36.3323 15.0609 85.4477
lradius 26.701
lwrist -9.70499
lhand -18.0732 22.0887
lfingers 7.12502
lthumb 8.19967 51.9095
rfemur -4.42551 1.63624 28.1755
rtibia 19.4434
rfoot -9.777 -5.49327
rtoes 5.5743
lfemur -21.1926 1.50778 -16.4027
ltibia 62.8268
lfoot -1.62914 -2.21241
ltoes -5.68659
41
root -9.15184 17.6642 -29.1189 -1.55639 -2.25655 -1.6063
lowerback 7.44727 -1.3026 -2.13325
upperback -1.37808 -1.67698 4.99783
thorax -5.41891 -0.679338 6.67349
lowerneck -6.62273 -0.463332 -12.8039
upperneck 18.7113 0.302252 4.37263
head 6.79201 -0.384361 3.56741
rclavicle 1.57537e-014 -2.70347e-014
rhumerus -33.1443 -1.54396 -78.1479
rradius 31.2493
rwrist 6.77089
rhand -15.0432 5.2596
rfingers 7.12502
rthumb 11.1231 -24.4256
lclavicle 1.57537e-014 -2.70347e-014
lhumerus -37.78 17.156 85.1045
lradius 26.9266
lwrist -10.0779
lhand -18.0296 21.9736
lfingers 7.12502
lthumb 8.24179 51.7929
rfemur -4.02711 1.5595 28.2333
rtibia 19.611
rfoot -10.1711 -5.66792
rtoes 5.41045
lfemur -21.9712 1.47373 -16.3918
ltibia 62.0661
lfoot -2.83343 -1.45251
ltoes -7.2859
42
root -9.14696 17.6478 -28.9859 -1.51519 -2.66184 -1.7801
lowerback 7.31192 -0.555816 -0.935304
upperback -0.801331 -0.62239 4.20788
thorax -4.88746 -0.224701 4.99883
lowerneck -8.44079 -1.28342 -11.7625
upperneck 19.1668 -0.775693 4.61325
head 7.3475 -0.806547 3.40341
rclavicle -1.55301e-018 3.02153e-014
rhumerus -32.1833 -4.15385 -78.3601
rradius 31.4674
rwrist 6.9943
rhand -13.5149 9.14191
rfingers 7.12502
rthumb 12.5968 -20.4583
lclavicle -1.55301e-018 3.02153e-014
lhumerus -36.156 14.724 85.5339
lradius 26.5692
lwrist -10.0706
lhand -17.7691 22.2874
lfingers 7.12502
lthumb 8.49317 52.0966
rfemur -3.55991 1.61409 28.4108
rtibia 19.7588
rfoot -10.6386 -5.68564
rtoes 5.50856
lfemur -22.7324 1.60222 -16.2494
ltibia 61.1589
lfoot -3.19415 -0.565117
ltoes -5.93426
43
root -9.14481 17.6316 -28.8455 -1.43867 -2.98597 -1.91441
lowerback 7.29417 0.00459691 -0.145846
upperback -0.535062 0.163208 3.6685
thorax -4.66534 0.131082 3.88563
lowerneck -9.40261 -1.85566 -11.0474
upperneck 19.4566 -1.60075 4.78696
head 7.67728 -1.13121 3.2728
rclavicle 8.00108e-015 3.18055e-015
rhumerus -31.4777 -5.69097 -78.5888
rradius 31.6466
rwrist 6.77103
rhand -12.8208 10.1826
rfingers 7.12502
rthumb 13.2659 -19.3752
lclavicle 8.00108e-015 3.18055e-015
lhumerus -35.3568 12.8706 85.8275
lradius 26.4146
lwrist -9.94423
lhand -17.6103 21.898
lfingers 7.12502
lthumb 8.64643 51.7009
rfemur -3.15848 1.7641 28.5696
rtibia 19.9392
rfoot -11.1472 -5.71849
rtoes 5.96448
lfemur -23.5088 1.63076 -16.1325
ltibia 60.1292
lfoot -3.09747 0.374431
ltoes -3.163
44
root -9.14361 17.6188 -28.7053 -1.43596 -3.1841 -2.14247
lowerback 7.43984 0.631162 0.851203
upperback -0.0654661 1.04618 3.03483
thorax -4.2864 0.532399 2.55552
lowerneck -11.1316 -2.63345 -10.2127
upperneck 19.7954 -2.69558 5.06194
head 8.18278 -1.55101 3.11579
rclavicle 9.81499e-015 1.59028e-014
rhumerus -30.3704 -7.76035 -78.8994
rradius 31.8148
rwrist 6.62637
rhand -13.1728 9.40445
rfingers 7.12502
rthumb 12.9266 -20.1752
lclavicle 9.81499e-015 1.59028e-014
lhumerus -34.074 10.5857 86.202
lradius 26.1835
lwrist -9.71638
lhand -17.7827 21.8619
lfingers 7.12502
lthumb 8.48005 51.6716
rfemur -2.68167 1.84408 28.8217
rtibia 20.097
rfoot -11.5802 -5.8116
rtoes 7.15597
lfemur -24.1217 1.55506 -15.8971
ltibia 58.9789
lfoot -3.77594 1.29505
ltoes -2.2708
45
root -9.13894 17.5979 -28.5674 -1.30173 -3.36916 -2.31953
lowerback 7.21538 1.27984 1.91489
upperback 0.956285 1.92655 2.24925
thorax -3.0713 0.946419 1.0592
lowerneck -14.7567 -3.61053 -8.93018
upperneck 20.4369 -4.00825 5.15662
head 9.14559 -2.02139 2.76223
rclavicle 1.60519e-014 -2.38542e-015
rhumerus -28.3208 -10.2412 -79.5715
rradius 32.1911
rwrist 6.5725
rhand -13.4773 9.32871
rfingers 7.12502
rthumb 12.6331 -20.2693
lclavicle 1.60519e-014 -2.38542e-015
lhumerus -31.4704 8.26754 86.5155
lradius 25.7479
lwrist -9.47008
lhand -17.9414 22.3563
lfingers 7.12502
lthumb 8.32685 52.1722
rfemur -2.35463 1.84415 28.9916
rtibia 20.2563
rfoot -12.1552 -5.8163
rtoes 6.04543
lfemur -24.8373 1.48999 -15.7403
ltibia 57.7294
lfoot -5.08074 2.25169
ltoes -3.47755
46
root -9.13539 17.5736 -28.4346 -1.08023 -3.45459 -2.4522
lowerback 7.05631 -0.140147 0.421505
upperback -0.728693 0.0307901 3.90186
thorax -4.72436 0.0559735 3.82388
lowerneck -8.34454 -1.59842 -11.476
upperneck 18.7897 -1.30234 4.81128
head 7.24872 -1.01205 3.36995
rclavicle -1.39149e-015 4.77083e-015
rhumerus -30.6826 -2.84446 -79.4307
rradius 32.8622
rwrist 5.26995
rhand -13.6458 9.33316
rfingers 7.12502
rthumb 12.4706 -20.2748
lclavicle -1.39149e-015 4.77083e-015
lhumerus -36.5435 13.6677 85.8495
lradius 26.592
lwrist -9.61932
lhand -17.8445 22.202
lfingers 7.12502
lthumb 8.42038 52.0141
rfemur -2.11263 1.81684 29.1129
rtibia 20.3136
rfoot -12.573 -5.78112
rtoes 5.28038
lfemur -25.6775 1.33299 -15.628
ltibia 56.3438
lfoot -5.9564 3.35476
ltoes -3.71724
